G04 #@! TF.GenerationSoftware,KiCad,Pcbnew,no-vcs-found-7391~56~ubuntu16.04.1*
G04 #@! TF.CreationDate,2016-12-09T19:04:11+09:00*
G04 #@! TF.ProjectId,magnetic_led_cube,6D61676E657469635F6C65645F637562,rev?*
G04 #@! TF.FileFunction,Copper,L2,Bot,Signal*
G04 #@! TF.FilePolarity,Positive*
%FSLAX46Y46*%
G04 Gerber Fmt 4.6, Leading zero omitted, Abs format (unit mm)*
G04 Created by KiCad (PCBNEW no-vcs-found-7391~56~ubuntu16.04.1) date Fri Dec  9 19:04:11 2016*
%MOMM*%
%LPD*%
G01*
G04 APERTURE LIST*
%ADD10C,0.100000*%
%ADD11C,1.998980*%
%ADD12C,2.000000*%
%ADD13R,2.000000X2.000000*%
%ADD14O,2.032000X2.032000*%
%ADD15R,2.032000X2.032000*%
%ADD16C,0.250000*%
%ADD17C,0.254000*%
G04 APERTURE END LIST*
D10*
D11*
X100076000Y-94742000D03*
X100076000Y-87122000D03*
D12*
X108077000Y-92202000D03*
D13*
X105537000Y-92202000D03*
D14*
X125476000Y-89916000D03*
D15*
X125476000Y-92456000D03*
X106172000Y-110744000D03*
D14*
X108712000Y-110744000D03*
X88900000Y-92456000D03*
D15*
X88900000Y-89916000D03*
X108204000Y-69596000D03*
D14*
X105664000Y-69596000D03*
D16*
X88900000Y-89916000D02*
X90805000Y-89916000D01*
X106172000Y-105283000D02*
X106172000Y-110744000D01*
X90805000Y-89916000D02*
X106172000Y-105283000D01*
X125476000Y-92456000D02*
X125476000Y-102870000D01*
X125476000Y-102870000D02*
X120777000Y-107569000D01*
X120777000Y-107569000D02*
X106172000Y-107569000D01*
X106172000Y-107569000D02*
X106172000Y-110744000D01*
X108204000Y-69596000D02*
X108204000Y-78105000D01*
X122555000Y-92456000D02*
X125476000Y-92456000D01*
X108204000Y-78105000D02*
X122555000Y-92456000D01*
X88900000Y-89916000D02*
X90932000Y-89916000D01*
X108204000Y-72644000D02*
X108204000Y-69596000D01*
X90932000Y-89916000D02*
X108204000Y-72644000D01*
X125476000Y-92456000D02*
X124460000Y-92456000D01*
X88900000Y-89916000D02*
X88900000Y-88900000D01*
D17*
G36*
X129159000Y-65786000D02*
X129168667Y-65834601D01*
X129196197Y-65875803D01*
X129237399Y-65903333D01*
X129286000Y-65913000D01*
X129290000Y-65913000D01*
X129290000Y-114290000D01*
X85710000Y-114290000D01*
X85710000Y-111029750D01*
X104521000Y-111029750D01*
X104521000Y-111886310D01*
X104617673Y-112119699D01*
X104796302Y-112298327D01*
X105029691Y-112395000D01*
X105886250Y-112395000D01*
X106045000Y-112236250D01*
X106045000Y-110871000D01*
X104679750Y-110871000D01*
X104521000Y-111029750D01*
X85710000Y-111029750D01*
X85710000Y-109601690D01*
X104521000Y-109601690D01*
X104521000Y-110458250D01*
X104679750Y-110617000D01*
X106045000Y-110617000D01*
X106045000Y-109251750D01*
X106299000Y-109251750D01*
X106299000Y-110617000D01*
X106319000Y-110617000D01*
X106319000Y-110871000D01*
X106299000Y-110871000D01*
X106299000Y-112236250D01*
X106457750Y-112395000D01*
X107314309Y-112395000D01*
X107547698Y-112298327D01*
X107726327Y-112119699D01*
X107747481Y-112068628D01*
X108047845Y-112269325D01*
X108679655Y-112395000D01*
X108744345Y-112395000D01*
X109376155Y-112269325D01*
X109911778Y-111911433D01*
X110269670Y-111375810D01*
X110395345Y-110744000D01*
X110269670Y-110112190D01*
X109911778Y-109576567D01*
X109376155Y-109218675D01*
X108744345Y-109093000D01*
X108679655Y-109093000D01*
X108047845Y-109218675D01*
X107747481Y-109419372D01*
X107726327Y-109368301D01*
X107547698Y-109189673D01*
X107314309Y-109093000D01*
X106457750Y-109093000D01*
X106299000Y-109251750D01*
X106045000Y-109251750D01*
X105886250Y-109093000D01*
X105029691Y-109093000D01*
X104796302Y-109189673D01*
X104617673Y-109368301D01*
X104521000Y-109601690D01*
X85710000Y-109601690D01*
X85710000Y-95065694D01*
X98441226Y-95065694D01*
X98689538Y-95666655D01*
X99148927Y-96126846D01*
X99749453Y-96376206D01*
X100399694Y-96376774D01*
X101000655Y-96128462D01*
X101460846Y-95669073D01*
X101710206Y-95068547D01*
X101710774Y-94418306D01*
X101462462Y-93817345D01*
X101003073Y-93357154D01*
X100402547Y-93107794D01*
X99752306Y-93107226D01*
X99151345Y-93355538D01*
X98691154Y-93814927D01*
X98441794Y-94415453D01*
X98441226Y-95065694D01*
X85710000Y-95065694D01*
X85710000Y-90201750D01*
X87249000Y-90201750D01*
X87249000Y-91058309D01*
X87345673Y-91291698D01*
X87524301Y-91470327D01*
X87575372Y-91491481D01*
X87374675Y-91791845D01*
X87249000Y-92423655D01*
X87249000Y-92488345D01*
X87374675Y-93120155D01*
X87732567Y-93655778D01*
X88268190Y-94013670D01*
X88900000Y-94139345D01*
X89531810Y-94013670D01*
X90067433Y-93655778D01*
X90425325Y-93120155D01*
X90551000Y-92488345D01*
X90551000Y-92423655D01*
X90425325Y-91791845D01*
X90224628Y-91491481D01*
X90275699Y-91470327D01*
X90454327Y-91291698D01*
X90491481Y-91202000D01*
X103889560Y-91202000D01*
X103889560Y-93202000D01*
X103938843Y-93449765D01*
X104079191Y-93659809D01*
X104289235Y-93800157D01*
X104537000Y-93849440D01*
X106537000Y-93849440D01*
X106784765Y-93800157D01*
X106994809Y-93659809D01*
X107085921Y-93523451D01*
X107149637Y-93587278D01*
X107750352Y-93836716D01*
X108400795Y-93837284D01*
X109001943Y-93588894D01*
X109462278Y-93129363D01*
X109623228Y-92741750D01*
X123825000Y-92741750D01*
X123825000Y-93598309D01*
X123921673Y-93831698D01*
X124100301Y-94010327D01*
X124333690Y-94107000D01*
X125190250Y-94107000D01*
X125349000Y-93948250D01*
X125349000Y-92583000D01*
X125603000Y-92583000D01*
X125603000Y-93948250D01*
X125761750Y-94107000D01*
X126618310Y-94107000D01*
X126851699Y-94010327D01*
X127030327Y-93831698D01*
X127127000Y-93598309D01*
X127127000Y-92741750D01*
X126968250Y-92583000D01*
X125603000Y-92583000D01*
X125349000Y-92583000D01*
X123983750Y-92583000D01*
X123825000Y-92741750D01*
X109623228Y-92741750D01*
X109711716Y-92528648D01*
X109712284Y-91878205D01*
X109463894Y-91277057D01*
X109004363Y-90816722D01*
X108403648Y-90567284D01*
X107753205Y-90566716D01*
X107152057Y-90815106D01*
X107086153Y-90880895D01*
X106994809Y-90744191D01*
X106784765Y-90603843D01*
X106537000Y-90554560D01*
X104537000Y-90554560D01*
X104289235Y-90603843D01*
X104079191Y-90744191D01*
X103938843Y-90954235D01*
X103889560Y-91202000D01*
X90491481Y-91202000D01*
X90551000Y-91058309D01*
X90551000Y-90201750D01*
X90392250Y-90043000D01*
X89027000Y-90043000D01*
X89027000Y-90063000D01*
X88773000Y-90063000D01*
X88773000Y-90043000D01*
X87407750Y-90043000D01*
X87249000Y-90201750D01*
X85710000Y-90201750D01*
X85710000Y-89883655D01*
X123825000Y-89883655D01*
X123825000Y-89948345D01*
X123950675Y-90580155D01*
X124151372Y-90880519D01*
X124100301Y-90901673D01*
X123921673Y-91080302D01*
X123825000Y-91313691D01*
X123825000Y-92170250D01*
X123983750Y-92329000D01*
X125349000Y-92329000D01*
X125349000Y-92309000D01*
X125603000Y-92309000D01*
X125603000Y-92329000D01*
X126968250Y-92329000D01*
X127127000Y-92170250D01*
X127127000Y-91313691D01*
X127030327Y-91080302D01*
X126851699Y-90901673D01*
X126800628Y-90880519D01*
X127001325Y-90580155D01*
X127127000Y-89948345D01*
X127127000Y-89883655D01*
X127001325Y-89251845D01*
X126643433Y-88716222D01*
X126107810Y-88358330D01*
X125476000Y-88232655D01*
X124844190Y-88358330D01*
X124308567Y-88716222D01*
X123950675Y-89251845D01*
X123825000Y-89883655D01*
X85710000Y-89883655D01*
X85710000Y-88773691D01*
X87249000Y-88773691D01*
X87249000Y-89630250D01*
X87407750Y-89789000D01*
X88773000Y-89789000D01*
X88773000Y-88423750D01*
X89027000Y-88423750D01*
X89027000Y-89789000D01*
X90392250Y-89789000D01*
X90551000Y-89630250D01*
X90551000Y-88773691D01*
X90454327Y-88540302D01*
X90275699Y-88361673D01*
X90042310Y-88265000D01*
X89185750Y-88265000D01*
X89027000Y-88423750D01*
X88773000Y-88423750D01*
X88614250Y-88265000D01*
X87757690Y-88265000D01*
X87524301Y-88361673D01*
X87345673Y-88540302D01*
X87249000Y-88773691D01*
X85710000Y-88773691D01*
X85710000Y-87445694D01*
X98441226Y-87445694D01*
X98689538Y-88046655D01*
X99148927Y-88506846D01*
X99749453Y-88756206D01*
X100399694Y-88756774D01*
X101000655Y-88508462D01*
X101460846Y-88049073D01*
X101710206Y-87448547D01*
X101710774Y-86798306D01*
X101462462Y-86197345D01*
X101003073Y-85737154D01*
X100402547Y-85487794D01*
X99752306Y-85487226D01*
X99151345Y-85735538D01*
X98691154Y-86194927D01*
X98441794Y-86795453D01*
X98441226Y-87445694D01*
X85710000Y-87445694D01*
X85710000Y-69596000D01*
X103980655Y-69596000D01*
X104106330Y-70227810D01*
X104464222Y-70763433D01*
X104999845Y-71121325D01*
X105631655Y-71247000D01*
X105696345Y-71247000D01*
X106328155Y-71121325D01*
X106628519Y-70920628D01*
X106649673Y-70971699D01*
X106828302Y-71150327D01*
X107061691Y-71247000D01*
X107918250Y-71247000D01*
X108077000Y-71088250D01*
X108077000Y-69723000D01*
X108331000Y-69723000D01*
X108331000Y-71088250D01*
X108489750Y-71247000D01*
X109346309Y-71247000D01*
X109579698Y-71150327D01*
X109758327Y-70971699D01*
X109855000Y-70738310D01*
X109855000Y-69881750D01*
X109696250Y-69723000D01*
X108331000Y-69723000D01*
X108077000Y-69723000D01*
X108057000Y-69723000D01*
X108057000Y-69469000D01*
X108077000Y-69469000D01*
X108077000Y-68103750D01*
X108331000Y-68103750D01*
X108331000Y-69469000D01*
X109696250Y-69469000D01*
X109855000Y-69310250D01*
X109855000Y-68453690D01*
X109758327Y-68220301D01*
X109579698Y-68041673D01*
X109346309Y-67945000D01*
X108489750Y-67945000D01*
X108331000Y-68103750D01*
X108077000Y-68103750D01*
X107918250Y-67945000D01*
X107061691Y-67945000D01*
X106828302Y-68041673D01*
X106649673Y-68220301D01*
X106628519Y-68271372D01*
X106328155Y-68070675D01*
X105696345Y-67945000D01*
X105631655Y-67945000D01*
X104999845Y-68070675D01*
X104464222Y-68428567D01*
X104106330Y-68964190D01*
X103980655Y-69596000D01*
X85710000Y-69596000D01*
X85710000Y-65710000D01*
X129159000Y-65710000D01*
X129159000Y-65786000D01*
X129159000Y-65786000D01*
G37*
X129159000Y-65786000D02*
X129168667Y-65834601D01*
X129196197Y-65875803D01*
X129237399Y-65903333D01*
X129286000Y-65913000D01*
X129290000Y-65913000D01*
X129290000Y-114290000D01*
X85710000Y-114290000D01*
X85710000Y-111029750D01*
X104521000Y-111029750D01*
X104521000Y-111886310D01*
X104617673Y-112119699D01*
X104796302Y-112298327D01*
X105029691Y-112395000D01*
X105886250Y-112395000D01*
X106045000Y-112236250D01*
X106045000Y-110871000D01*
X104679750Y-110871000D01*
X104521000Y-111029750D01*
X85710000Y-111029750D01*
X85710000Y-109601690D01*
X104521000Y-109601690D01*
X104521000Y-110458250D01*
X104679750Y-110617000D01*
X106045000Y-110617000D01*
X106045000Y-109251750D01*
X106299000Y-109251750D01*
X106299000Y-110617000D01*
X106319000Y-110617000D01*
X106319000Y-110871000D01*
X106299000Y-110871000D01*
X106299000Y-112236250D01*
X106457750Y-112395000D01*
X107314309Y-112395000D01*
X107547698Y-112298327D01*
X107726327Y-112119699D01*
X107747481Y-112068628D01*
X108047845Y-112269325D01*
X108679655Y-112395000D01*
X108744345Y-112395000D01*
X109376155Y-112269325D01*
X109911778Y-111911433D01*
X110269670Y-111375810D01*
X110395345Y-110744000D01*
X110269670Y-110112190D01*
X109911778Y-109576567D01*
X109376155Y-109218675D01*
X108744345Y-109093000D01*
X108679655Y-109093000D01*
X108047845Y-109218675D01*
X107747481Y-109419372D01*
X107726327Y-109368301D01*
X107547698Y-109189673D01*
X107314309Y-109093000D01*
X106457750Y-109093000D01*
X106299000Y-109251750D01*
X106045000Y-109251750D01*
X105886250Y-109093000D01*
X105029691Y-109093000D01*
X104796302Y-109189673D01*
X104617673Y-109368301D01*
X104521000Y-109601690D01*
X85710000Y-109601690D01*
X85710000Y-95065694D01*
X98441226Y-95065694D01*
X98689538Y-95666655D01*
X99148927Y-96126846D01*
X99749453Y-96376206D01*
X100399694Y-96376774D01*
X101000655Y-96128462D01*
X101460846Y-95669073D01*
X101710206Y-95068547D01*
X101710774Y-94418306D01*
X101462462Y-93817345D01*
X101003073Y-93357154D01*
X100402547Y-93107794D01*
X99752306Y-93107226D01*
X99151345Y-93355538D01*
X98691154Y-93814927D01*
X98441794Y-94415453D01*
X98441226Y-95065694D01*
X85710000Y-95065694D01*
X85710000Y-90201750D01*
X87249000Y-90201750D01*
X87249000Y-91058309D01*
X87345673Y-91291698D01*
X87524301Y-91470327D01*
X87575372Y-91491481D01*
X87374675Y-91791845D01*
X87249000Y-92423655D01*
X87249000Y-92488345D01*
X87374675Y-93120155D01*
X87732567Y-93655778D01*
X88268190Y-94013670D01*
X88900000Y-94139345D01*
X89531810Y-94013670D01*
X90067433Y-93655778D01*
X90425325Y-93120155D01*
X90551000Y-92488345D01*
X90551000Y-92423655D01*
X90425325Y-91791845D01*
X90224628Y-91491481D01*
X90275699Y-91470327D01*
X90454327Y-91291698D01*
X90491481Y-91202000D01*
X103889560Y-91202000D01*
X103889560Y-93202000D01*
X103938843Y-93449765D01*
X104079191Y-93659809D01*
X104289235Y-93800157D01*
X104537000Y-93849440D01*
X106537000Y-93849440D01*
X106784765Y-93800157D01*
X106994809Y-93659809D01*
X107085921Y-93523451D01*
X107149637Y-93587278D01*
X107750352Y-93836716D01*
X108400795Y-93837284D01*
X109001943Y-93588894D01*
X109462278Y-93129363D01*
X109623228Y-92741750D01*
X123825000Y-92741750D01*
X123825000Y-93598309D01*
X123921673Y-93831698D01*
X124100301Y-94010327D01*
X124333690Y-94107000D01*
X125190250Y-94107000D01*
X125349000Y-93948250D01*
X125349000Y-92583000D01*
X125603000Y-92583000D01*
X125603000Y-93948250D01*
X125761750Y-94107000D01*
X126618310Y-94107000D01*
X126851699Y-94010327D01*
X127030327Y-93831698D01*
X127127000Y-93598309D01*
X127127000Y-92741750D01*
X126968250Y-92583000D01*
X125603000Y-92583000D01*
X125349000Y-92583000D01*
X123983750Y-92583000D01*
X123825000Y-92741750D01*
X109623228Y-92741750D01*
X109711716Y-92528648D01*
X109712284Y-91878205D01*
X109463894Y-91277057D01*
X109004363Y-90816722D01*
X108403648Y-90567284D01*
X107753205Y-90566716D01*
X107152057Y-90815106D01*
X107086153Y-90880895D01*
X106994809Y-90744191D01*
X106784765Y-90603843D01*
X106537000Y-90554560D01*
X104537000Y-90554560D01*
X104289235Y-90603843D01*
X104079191Y-90744191D01*
X103938843Y-90954235D01*
X103889560Y-91202000D01*
X90491481Y-91202000D01*
X90551000Y-91058309D01*
X90551000Y-90201750D01*
X90392250Y-90043000D01*
X89027000Y-90043000D01*
X89027000Y-90063000D01*
X88773000Y-90063000D01*
X88773000Y-90043000D01*
X87407750Y-90043000D01*
X87249000Y-90201750D01*
X85710000Y-90201750D01*
X85710000Y-89883655D01*
X123825000Y-89883655D01*
X123825000Y-89948345D01*
X123950675Y-90580155D01*
X124151372Y-90880519D01*
X124100301Y-90901673D01*
X123921673Y-91080302D01*
X123825000Y-91313691D01*
X123825000Y-92170250D01*
X123983750Y-92329000D01*
X125349000Y-92329000D01*
X125349000Y-92309000D01*
X125603000Y-92309000D01*
X125603000Y-92329000D01*
X126968250Y-92329000D01*
X127127000Y-92170250D01*
X127127000Y-91313691D01*
X127030327Y-91080302D01*
X126851699Y-90901673D01*
X126800628Y-90880519D01*
X127001325Y-90580155D01*
X127127000Y-89948345D01*
X127127000Y-89883655D01*
X127001325Y-89251845D01*
X126643433Y-88716222D01*
X126107810Y-88358330D01*
X125476000Y-88232655D01*
X124844190Y-88358330D01*
X124308567Y-88716222D01*
X123950675Y-89251845D01*
X123825000Y-89883655D01*
X85710000Y-89883655D01*
X85710000Y-88773691D01*
X87249000Y-88773691D01*
X87249000Y-89630250D01*
X87407750Y-89789000D01*
X88773000Y-89789000D01*
X88773000Y-88423750D01*
X89027000Y-88423750D01*
X89027000Y-89789000D01*
X90392250Y-89789000D01*
X90551000Y-89630250D01*
X90551000Y-88773691D01*
X90454327Y-88540302D01*
X90275699Y-88361673D01*
X90042310Y-88265000D01*
X89185750Y-88265000D01*
X89027000Y-88423750D01*
X88773000Y-88423750D01*
X88614250Y-88265000D01*
X87757690Y-88265000D01*
X87524301Y-88361673D01*
X87345673Y-88540302D01*
X87249000Y-88773691D01*
X85710000Y-88773691D01*
X85710000Y-87445694D01*
X98441226Y-87445694D01*
X98689538Y-88046655D01*
X99148927Y-88506846D01*
X99749453Y-88756206D01*
X100399694Y-88756774D01*
X101000655Y-88508462D01*
X101460846Y-88049073D01*
X101710206Y-87448547D01*
X101710774Y-86798306D01*
X101462462Y-86197345D01*
X101003073Y-85737154D01*
X100402547Y-85487794D01*
X99752306Y-85487226D01*
X99151345Y-85735538D01*
X98691154Y-86194927D01*
X98441794Y-86795453D01*
X98441226Y-87445694D01*
X85710000Y-87445694D01*
X85710000Y-69596000D01*
X103980655Y-69596000D01*
X104106330Y-70227810D01*
X104464222Y-70763433D01*
X104999845Y-71121325D01*
X105631655Y-71247000D01*
X105696345Y-71247000D01*
X106328155Y-71121325D01*
X106628519Y-70920628D01*
X106649673Y-70971699D01*
X106828302Y-71150327D01*
X107061691Y-71247000D01*
X107918250Y-71247000D01*
X108077000Y-71088250D01*
X108077000Y-69723000D01*
X108331000Y-69723000D01*
X108331000Y-71088250D01*
X108489750Y-71247000D01*
X109346309Y-71247000D01*
X109579698Y-71150327D01*
X109758327Y-70971699D01*
X109855000Y-70738310D01*
X109855000Y-69881750D01*
X109696250Y-69723000D01*
X108331000Y-69723000D01*
X108077000Y-69723000D01*
X108057000Y-69723000D01*
X108057000Y-69469000D01*
X108077000Y-69469000D01*
X108077000Y-68103750D01*
X108331000Y-68103750D01*
X108331000Y-69469000D01*
X109696250Y-69469000D01*
X109855000Y-69310250D01*
X109855000Y-68453690D01*
X109758327Y-68220301D01*
X109579698Y-68041673D01*
X109346309Y-67945000D01*
X108489750Y-67945000D01*
X108331000Y-68103750D01*
X108077000Y-68103750D01*
X107918250Y-67945000D01*
X107061691Y-67945000D01*
X106828302Y-68041673D01*
X106649673Y-68220301D01*
X106628519Y-68271372D01*
X106328155Y-68070675D01*
X105696345Y-67945000D01*
X105631655Y-67945000D01*
X104999845Y-68070675D01*
X104464222Y-68428567D01*
X104106330Y-68964190D01*
X103980655Y-69596000D01*
X85710000Y-69596000D01*
X85710000Y-65710000D01*
X129159000Y-65710000D01*
X129159000Y-65786000D01*
M02*
