G04 #@! TF.GenerationSoftware,KiCad,Pcbnew,no-vcs-found-7391~56~ubuntu16.04.1*
G04 #@! TF.CreationDate,2016-12-09T19:04:11+09:00*
G04 #@! TF.ProjectId,magnetic_led_cube,6D61676E657469635F6C65645F637562,rev?*
G04 #@! TF.FileFunction,Legend,Top*
G04 #@! TF.FilePolarity,Positive*
%FSLAX46Y46*%
G04 Gerber Fmt 4.6, Leading zero omitted, Abs format (unit mm)*
G04 Created by KiCad (PCBNEW no-vcs-found-7391~56~ubuntu16.04.1) date Fri Dec  9 19:04:11 2016*
%MOMM*%
%LPD*%
G01*
G04 APERTURE LIST*
%ADD10C,0.100000*%
%ADD11C,0.150000*%
G04 APERTURE END LIST*
D10*
D11*
X98806000Y-88392000D02*
X101346000Y-88392000D01*
X98806000Y-93472000D02*
X98806000Y-88392000D01*
X101346000Y-93472000D02*
X98806000Y-93472000D01*
X101346000Y-88392000D02*
X101346000Y-93472000D01*
X105824111Y-93315253D02*
G75*
G03X107872000Y-93296000I1013889J1079253D01*
G01*
X105350780Y-93542726D02*
G75*
G03X108588000Y-93196000I1497220J1306726D01*
G01*
X107890006Y-91102932D02*
G75*
G03X105787000Y-91102000I-1052006J-1133068D01*
G01*
X108565744Y-91232357D02*
G75*
G03X105338000Y-90916000I-1727744J-1003643D01*
G01*
X105338000Y-90922000D02*
X105338000Y-91102000D01*
X105338000Y-93516000D02*
X105338000Y-93316000D01*
X124206000Y-88646000D02*
X126746000Y-88646000D01*
X124206000Y-91186000D02*
X124206000Y-88646000D01*
X123926000Y-94006000D02*
X127026000Y-94006000D01*
X123926000Y-92456000D02*
X123926000Y-94006000D01*
X126746000Y-91186000D02*
X124206000Y-91186000D01*
X126746000Y-88646000D02*
X126746000Y-91186000D01*
X127026000Y-94006000D02*
X127026000Y-92456000D01*
X104622000Y-112294000D02*
X106172000Y-112294000D01*
X109982000Y-112014000D02*
X107442000Y-112014000D01*
X107442000Y-112014000D02*
X107442000Y-109474000D01*
X106172000Y-109194000D02*
X104622000Y-109194000D01*
X104622000Y-109194000D02*
X104622000Y-112294000D01*
X107442000Y-109474000D02*
X109982000Y-109474000D01*
X109982000Y-109474000D02*
X109982000Y-112014000D01*
X90170000Y-93726000D02*
X87630000Y-93726000D01*
X90170000Y-91186000D02*
X90170000Y-93726000D01*
X90450000Y-88366000D02*
X87350000Y-88366000D01*
X90450000Y-89916000D02*
X90450000Y-88366000D01*
X87630000Y-91186000D02*
X90170000Y-91186000D01*
X87630000Y-93726000D02*
X87630000Y-91186000D01*
X87350000Y-88366000D02*
X87350000Y-89916000D01*
X109754000Y-68046000D02*
X108204000Y-68046000D01*
X104394000Y-68326000D02*
X106934000Y-68326000D01*
X106934000Y-68326000D02*
X106934000Y-70866000D01*
X108204000Y-71146000D02*
X109754000Y-71146000D01*
X109754000Y-71146000D02*
X109754000Y-68046000D01*
X106934000Y-70866000D02*
X104394000Y-70866000D01*
X104394000Y-70866000D02*
X104394000Y-68326000D01*
X105029000Y-83693000D02*
X105029000Y-88265000D01*
X111887000Y-83693000D02*
X102997000Y-83693000D01*
X102997000Y-83693000D02*
X102997000Y-88265000D01*
X102997000Y-88265000D02*
X111887000Y-88265000D01*
X111887000Y-88265000D02*
X111887000Y-83693000D01*
X104028500Y-91347586D02*
X103552310Y-91680920D01*
X104028500Y-91919015D02*
X103028500Y-91919015D01*
X103028500Y-91538062D01*
X103076120Y-91442824D01*
X103123739Y-91395205D01*
X103218977Y-91347586D01*
X103361834Y-91347586D01*
X103457072Y-91395205D01*
X103504691Y-91442824D01*
X103552310Y-91538062D01*
X103552310Y-91919015D01*
X104028500Y-90395205D02*
X104028500Y-90966634D01*
X104028500Y-90680920D02*
X103028500Y-90680920D01*
X103171358Y-90776158D01*
X103266596Y-90871396D01*
X103314215Y-90966634D01*
X106708904Y-95714380D02*
X106708904Y-94714380D01*
X106947000Y-94714380D01*
X107089857Y-94762000D01*
X107185095Y-94857238D01*
X107232714Y-94952476D01*
X107280333Y-95142952D01*
X107280333Y-95285809D01*
X107232714Y-95476285D01*
X107185095Y-95571523D01*
X107089857Y-95666761D01*
X106947000Y-95714380D01*
X106708904Y-95714380D01*
X108232714Y-95714380D02*
X107661285Y-95714380D01*
X107947000Y-95714380D02*
X107947000Y-94714380D01*
X107851761Y-94857238D01*
X107756523Y-94952476D01*
X107661285Y-95000095D01*
X103585095Y-94394380D02*
X103585095Y-93394380D01*
X104156523Y-94394380D02*
X103727952Y-93822952D01*
X104156523Y-93394380D02*
X103585095Y-93965809D01*
X120828380Y-93194095D02*
X119828380Y-93194095D01*
X119828380Y-92813142D01*
X119876000Y-92717904D01*
X119923619Y-92670285D01*
X120018857Y-92622666D01*
X120161714Y-92622666D01*
X120256952Y-92670285D01*
X120304571Y-92717904D01*
X120352190Y-92813142D01*
X120352190Y-93194095D01*
X120828380Y-91670285D02*
X120828380Y-92241714D01*
X120828380Y-91956000D02*
X119828380Y-91956000D01*
X119971238Y-92051238D01*
X120066476Y-92146476D01*
X120114095Y-92241714D01*
X105433904Y-106096380D02*
X105433904Y-105096380D01*
X105814857Y-105096380D01*
X105910095Y-105144000D01*
X105957714Y-105191619D01*
X106005333Y-105286857D01*
X106005333Y-105429714D01*
X105957714Y-105524952D01*
X105910095Y-105572571D01*
X105814857Y-105620190D01*
X105433904Y-105620190D01*
X106386285Y-105191619D02*
X106433904Y-105144000D01*
X106529142Y-105096380D01*
X106767238Y-105096380D01*
X106862476Y-105144000D01*
X106910095Y-105191619D01*
X106957714Y-105286857D01*
X106957714Y-105382095D01*
X106910095Y-105524952D01*
X106338666Y-106096380D01*
X106957714Y-106096380D01*
X94452380Y-90654095D02*
X93452380Y-90654095D01*
X93452380Y-90273142D01*
X93500000Y-90177904D01*
X93547619Y-90130285D01*
X93642857Y-90082666D01*
X93785714Y-90082666D01*
X93880952Y-90130285D01*
X93928571Y-90177904D01*
X93976190Y-90273142D01*
X93976190Y-90654095D01*
X93452380Y-89749333D02*
X93452380Y-89130285D01*
X93833333Y-89463619D01*
X93833333Y-89320761D01*
X93880952Y-89225523D01*
X93928571Y-89177904D01*
X94023809Y-89130285D01*
X94261904Y-89130285D01*
X94357142Y-89177904D01*
X94404761Y-89225523D01*
X94452380Y-89320761D01*
X94452380Y-89606476D01*
X94404761Y-89701714D01*
X94357142Y-89749333D01*
X107465904Y-75148380D02*
X107465904Y-74148380D01*
X107846857Y-74148380D01*
X107942095Y-74196000D01*
X107989714Y-74243619D01*
X108037333Y-74338857D01*
X108037333Y-74481714D01*
X107989714Y-74576952D01*
X107942095Y-74624571D01*
X107846857Y-74672190D01*
X107465904Y-74672190D01*
X108894476Y-74481714D02*
X108894476Y-75148380D01*
X108656380Y-74100761D02*
X108418285Y-74815047D01*
X109037333Y-74815047D01*
X105497380Y-87217095D02*
X106306904Y-87217095D01*
X106402142Y-87169476D01*
X106449761Y-87121857D01*
X106497380Y-87026619D01*
X106497380Y-86836142D01*
X106449761Y-86740904D01*
X106402142Y-86693285D01*
X106306904Y-86645666D01*
X105497380Y-86645666D01*
X105497380Y-86264714D02*
X105497380Y-85598047D01*
X106497380Y-86264714D01*
X106497380Y-85598047D01*
X106497380Y-84693285D02*
X106497380Y-85264714D01*
X106497380Y-84979000D02*
X105497380Y-84979000D01*
X105640238Y-85074238D01*
X105735476Y-85169476D01*
X105783095Y-85264714D01*
X109291380Y-87764714D02*
X108291380Y-87764714D01*
X109005666Y-87431380D01*
X108291380Y-87098047D01*
X109291380Y-87098047D01*
X108767571Y-86288523D02*
X108815190Y-86145666D01*
X108862809Y-86098047D01*
X108958047Y-86050428D01*
X109100904Y-86050428D01*
X109196142Y-86098047D01*
X109243761Y-86145666D01*
X109291380Y-86240904D01*
X109291380Y-86621857D01*
X108291380Y-86621857D01*
X108291380Y-86288523D01*
X108339000Y-86193285D01*
X108386619Y-86145666D01*
X108481857Y-86098047D01*
X108577095Y-86098047D01*
X108672333Y-86145666D01*
X108719952Y-86193285D01*
X108767571Y-86288523D01*
X108767571Y-86621857D01*
X108291380Y-85193285D02*
X108291380Y-85383761D01*
X108339000Y-85479000D01*
X108386619Y-85526619D01*
X108529476Y-85621857D01*
X108719952Y-85669476D01*
X109100904Y-85669476D01*
X109196142Y-85621857D01*
X109243761Y-85574238D01*
X109291380Y-85479000D01*
X109291380Y-85288523D01*
X109243761Y-85193285D01*
X109196142Y-85145666D01*
X109100904Y-85098047D01*
X108862809Y-85098047D01*
X108767571Y-85145666D01*
X108719952Y-85193285D01*
X108672333Y-85288523D01*
X108672333Y-85479000D01*
X108719952Y-85574238D01*
X108767571Y-85621857D01*
X108862809Y-85669476D01*
X109243761Y-84717095D02*
X109291380Y-84574238D01*
X109291380Y-84336142D01*
X109243761Y-84240904D01*
X109196142Y-84193285D01*
X109100904Y-84145666D01*
X109005666Y-84145666D01*
X108910428Y-84193285D01*
X108862809Y-84240904D01*
X108815190Y-84336142D01*
X108767571Y-84526619D01*
X108719952Y-84621857D01*
X108672333Y-84669476D01*
X108577095Y-84717095D01*
X108481857Y-84717095D01*
X108386619Y-84669476D01*
X108339000Y-84621857D01*
X108291380Y-84526619D01*
X108291380Y-84288523D01*
X108339000Y-84145666D01*
M02*
