G04 #@! TF.GenerationSoftware,KiCad,Pcbnew,no-vcs-found-7391~56~ubuntu16.04.1*
G04 #@! TF.CreationDate,2016-12-09T19:04:11+09:00*
G04 #@! TF.ProjectId,magnetic_led_cube,6D61676E657469635F6C65645F637562,rev?*
G04 #@! TF.FileFunction,Copper,L1,Top,Signal*
G04 #@! TF.FilePolarity,Positive*
%FSLAX46Y46*%
G04 Gerber Fmt 4.6, Leading zero omitted, Abs format (unit mm)*
G04 Created by KiCad (PCBNEW no-vcs-found-7391~56~ubuntu16.04.1) date Fri Dec  9 19:04:11 2016*
%MOMM*%
%LPD*%
G01*
G04 APERTURE LIST*
%ADD10C,0.100000*%
%ADD11C,1.998980*%
%ADD12C,2.000000*%
%ADD13R,2.000000X2.000000*%
%ADD14O,2.032000X2.032000*%
%ADD15R,2.032000X2.032000*%
%ADD16R,1.000000X1.000000*%
%ADD17C,0.250000*%
%ADD18C,0.254000*%
G04 APERTURE END LIST*
D10*
D11*
X100076000Y-94742000D03*
X100076000Y-87122000D03*
D12*
X108077000Y-92202000D03*
D13*
X105537000Y-92202000D03*
D14*
X125476000Y-89916000D03*
D15*
X125476000Y-92456000D03*
X106172000Y-110744000D03*
D14*
X108712000Y-110744000D03*
X88900000Y-92456000D03*
D15*
X88900000Y-89916000D03*
X108204000Y-69596000D03*
D14*
X105664000Y-69596000D03*
D16*
X103865000Y-84649000D03*
X103865000Y-87279000D03*
X110765000Y-84679000D03*
X110765000Y-87279000D03*
D17*
X100076000Y-94742000D02*
X100076000Y-97028000D01*
X108077000Y-97028000D02*
X108077000Y-92202000D01*
X100076000Y-97028000D02*
X108077000Y-97028000D01*
X103865000Y-87279000D02*
X103865000Y-90530000D01*
X103865000Y-90530000D02*
X105537000Y-92202000D01*
X88900000Y-92456000D02*
X91948000Y-92456000D01*
X92075000Y-83185000D02*
X105664000Y-69596000D01*
X92075000Y-92329000D02*
X92075000Y-83185000D01*
X91948000Y-92456000D02*
X92075000Y-92329000D01*
X108712000Y-110744000D02*
X108712000Y-113665000D01*
X88900000Y-100203000D02*
X88900000Y-92456000D01*
X102489000Y-113792000D02*
X88900000Y-100203000D01*
X108585000Y-113792000D02*
X102489000Y-113792000D01*
X108712000Y-113665000D02*
X108585000Y-113792000D01*
X125476000Y-89916000D02*
X122047000Y-89916000D01*
X116840000Y-110744000D02*
X108712000Y-110744000D01*
X117348000Y-110236000D02*
X116840000Y-110744000D01*
X117348000Y-94615000D02*
X117348000Y-110236000D01*
X122047000Y-89916000D02*
X117348000Y-94615000D01*
X105664000Y-69596000D02*
X105664000Y-74041000D01*
X105664000Y-74041000D02*
X121539000Y-89916000D01*
X121539000Y-89916000D02*
X125476000Y-89916000D01*
X108712000Y-110744000D02*
X108966000Y-110744000D01*
X108966000Y-110744000D02*
X113919000Y-105791000D01*
X113889000Y-84679000D02*
X110765000Y-84679000D01*
X113919000Y-84709000D02*
X113889000Y-84679000D01*
X113919000Y-105791000D02*
X113919000Y-84709000D01*
X125476000Y-89916000D02*
X125476000Y-89408000D01*
X110765000Y-87279000D02*
X110765000Y-106151000D01*
X110765000Y-106151000D02*
X106172000Y-110744000D01*
X103865000Y-84649000D02*
X102549000Y-84649000D01*
X102549000Y-84649000D02*
X100076000Y-87122000D01*
D18*
G36*
X129290000Y-114290000D02*
X109161802Y-114290000D01*
X109249401Y-114202401D01*
X109414148Y-113955839D01*
X109472000Y-113665000D01*
X109472000Y-112205283D01*
X109911778Y-111911433D01*
X110184016Y-111504000D01*
X116840000Y-111504000D01*
X117130839Y-111446148D01*
X117377401Y-111281401D01*
X117885401Y-110773401D01*
X117905046Y-110744000D01*
X118050148Y-110526839D01*
X118108000Y-110236000D01*
X118108000Y-94929802D01*
X120296052Y-92741750D01*
X123825000Y-92741750D01*
X123825000Y-93598309D01*
X123921673Y-93831698D01*
X124100301Y-94010327D01*
X124333690Y-94107000D01*
X125190250Y-94107000D01*
X125349000Y-93948250D01*
X125349000Y-92583000D01*
X125603000Y-92583000D01*
X125603000Y-93948250D01*
X125761750Y-94107000D01*
X126618310Y-94107000D01*
X126851699Y-94010327D01*
X127030327Y-93831698D01*
X127127000Y-93598309D01*
X127127000Y-92741750D01*
X126968250Y-92583000D01*
X125603000Y-92583000D01*
X125349000Y-92583000D01*
X123983750Y-92583000D01*
X123825000Y-92741750D01*
X120296052Y-92741750D01*
X122361802Y-90676000D01*
X124014717Y-90676000D01*
X124151372Y-90880519D01*
X124100301Y-90901673D01*
X123921673Y-91080302D01*
X123825000Y-91313691D01*
X123825000Y-92170250D01*
X123983750Y-92329000D01*
X125349000Y-92329000D01*
X125349000Y-92309000D01*
X125603000Y-92309000D01*
X125603000Y-92329000D01*
X126968250Y-92329000D01*
X127127000Y-92170250D01*
X127127000Y-91313691D01*
X127030327Y-91080302D01*
X126851699Y-90901673D01*
X126800628Y-90880519D01*
X127001325Y-90580155D01*
X127127000Y-89948345D01*
X127127000Y-89883655D01*
X127001325Y-89251845D01*
X126643433Y-88716222D01*
X126107810Y-88358330D01*
X125476000Y-88232655D01*
X124844190Y-88358330D01*
X124308567Y-88716222D01*
X124014717Y-89156000D01*
X121853802Y-89156000D01*
X106424000Y-73726198D01*
X106424000Y-71057283D01*
X106628519Y-70920628D01*
X106649673Y-70971699D01*
X106828302Y-71150327D01*
X107061691Y-71247000D01*
X107918250Y-71247000D01*
X108077000Y-71088250D01*
X108077000Y-69723000D01*
X108331000Y-69723000D01*
X108331000Y-71088250D01*
X108489750Y-71247000D01*
X109346309Y-71247000D01*
X109579698Y-71150327D01*
X109758327Y-70971699D01*
X109855000Y-70738310D01*
X109855000Y-69881750D01*
X109696250Y-69723000D01*
X108331000Y-69723000D01*
X108077000Y-69723000D01*
X108057000Y-69723000D01*
X108057000Y-69469000D01*
X108077000Y-69469000D01*
X108077000Y-68103750D01*
X108331000Y-68103750D01*
X108331000Y-69469000D01*
X109696250Y-69469000D01*
X109855000Y-69310250D01*
X109855000Y-68453690D01*
X109758327Y-68220301D01*
X109579698Y-68041673D01*
X109346309Y-67945000D01*
X108489750Y-67945000D01*
X108331000Y-68103750D01*
X108077000Y-68103750D01*
X107918250Y-67945000D01*
X107061691Y-67945000D01*
X106828302Y-68041673D01*
X106649673Y-68220301D01*
X106628519Y-68271372D01*
X106328155Y-68070675D01*
X105696345Y-67945000D01*
X105631655Y-67945000D01*
X104999845Y-68070675D01*
X104464222Y-68428567D01*
X104106330Y-68964190D01*
X103980655Y-69596000D01*
X104081619Y-70103579D01*
X91537599Y-82647599D01*
X91372852Y-82894161D01*
X91315000Y-83185000D01*
X91315000Y-91696000D01*
X90361283Y-91696000D01*
X90224628Y-91491481D01*
X90275699Y-91470327D01*
X90454327Y-91291698D01*
X90551000Y-91058309D01*
X90551000Y-90201750D01*
X90392250Y-90043000D01*
X89027000Y-90043000D01*
X89027000Y-90063000D01*
X88773000Y-90063000D01*
X88773000Y-90043000D01*
X87407750Y-90043000D01*
X87249000Y-90201750D01*
X87249000Y-91058309D01*
X87345673Y-91291698D01*
X87524301Y-91470327D01*
X87575372Y-91491481D01*
X87374675Y-91791845D01*
X87249000Y-92423655D01*
X87249000Y-92488345D01*
X87374675Y-93120155D01*
X87732567Y-93655778D01*
X88140000Y-93928016D01*
X88140000Y-100203000D01*
X88197852Y-100493839D01*
X88362599Y-100740401D01*
X101912198Y-114290000D01*
X85710000Y-114290000D01*
X85710000Y-88773691D01*
X87249000Y-88773691D01*
X87249000Y-89630250D01*
X87407750Y-89789000D01*
X88773000Y-89789000D01*
X88773000Y-88423750D01*
X89027000Y-88423750D01*
X89027000Y-89789000D01*
X90392250Y-89789000D01*
X90551000Y-89630250D01*
X90551000Y-88773691D01*
X90454327Y-88540302D01*
X90275699Y-88361673D01*
X90042310Y-88265000D01*
X89185750Y-88265000D01*
X89027000Y-88423750D01*
X88773000Y-88423750D01*
X88614250Y-88265000D01*
X87757690Y-88265000D01*
X87524301Y-88361673D01*
X87345673Y-88540302D01*
X87249000Y-88773691D01*
X85710000Y-88773691D01*
X85710000Y-65710000D01*
X129290000Y-65710000D01*
X129290000Y-114290000D01*
X129290000Y-114290000D01*
G37*
X129290000Y-114290000D02*
X109161802Y-114290000D01*
X109249401Y-114202401D01*
X109414148Y-113955839D01*
X109472000Y-113665000D01*
X109472000Y-112205283D01*
X109911778Y-111911433D01*
X110184016Y-111504000D01*
X116840000Y-111504000D01*
X117130839Y-111446148D01*
X117377401Y-111281401D01*
X117885401Y-110773401D01*
X117905046Y-110744000D01*
X118050148Y-110526839D01*
X118108000Y-110236000D01*
X118108000Y-94929802D01*
X120296052Y-92741750D01*
X123825000Y-92741750D01*
X123825000Y-93598309D01*
X123921673Y-93831698D01*
X124100301Y-94010327D01*
X124333690Y-94107000D01*
X125190250Y-94107000D01*
X125349000Y-93948250D01*
X125349000Y-92583000D01*
X125603000Y-92583000D01*
X125603000Y-93948250D01*
X125761750Y-94107000D01*
X126618310Y-94107000D01*
X126851699Y-94010327D01*
X127030327Y-93831698D01*
X127127000Y-93598309D01*
X127127000Y-92741750D01*
X126968250Y-92583000D01*
X125603000Y-92583000D01*
X125349000Y-92583000D01*
X123983750Y-92583000D01*
X123825000Y-92741750D01*
X120296052Y-92741750D01*
X122361802Y-90676000D01*
X124014717Y-90676000D01*
X124151372Y-90880519D01*
X124100301Y-90901673D01*
X123921673Y-91080302D01*
X123825000Y-91313691D01*
X123825000Y-92170250D01*
X123983750Y-92329000D01*
X125349000Y-92329000D01*
X125349000Y-92309000D01*
X125603000Y-92309000D01*
X125603000Y-92329000D01*
X126968250Y-92329000D01*
X127127000Y-92170250D01*
X127127000Y-91313691D01*
X127030327Y-91080302D01*
X126851699Y-90901673D01*
X126800628Y-90880519D01*
X127001325Y-90580155D01*
X127127000Y-89948345D01*
X127127000Y-89883655D01*
X127001325Y-89251845D01*
X126643433Y-88716222D01*
X126107810Y-88358330D01*
X125476000Y-88232655D01*
X124844190Y-88358330D01*
X124308567Y-88716222D01*
X124014717Y-89156000D01*
X121853802Y-89156000D01*
X106424000Y-73726198D01*
X106424000Y-71057283D01*
X106628519Y-70920628D01*
X106649673Y-70971699D01*
X106828302Y-71150327D01*
X107061691Y-71247000D01*
X107918250Y-71247000D01*
X108077000Y-71088250D01*
X108077000Y-69723000D01*
X108331000Y-69723000D01*
X108331000Y-71088250D01*
X108489750Y-71247000D01*
X109346309Y-71247000D01*
X109579698Y-71150327D01*
X109758327Y-70971699D01*
X109855000Y-70738310D01*
X109855000Y-69881750D01*
X109696250Y-69723000D01*
X108331000Y-69723000D01*
X108077000Y-69723000D01*
X108057000Y-69723000D01*
X108057000Y-69469000D01*
X108077000Y-69469000D01*
X108077000Y-68103750D01*
X108331000Y-68103750D01*
X108331000Y-69469000D01*
X109696250Y-69469000D01*
X109855000Y-69310250D01*
X109855000Y-68453690D01*
X109758327Y-68220301D01*
X109579698Y-68041673D01*
X109346309Y-67945000D01*
X108489750Y-67945000D01*
X108331000Y-68103750D01*
X108077000Y-68103750D01*
X107918250Y-67945000D01*
X107061691Y-67945000D01*
X106828302Y-68041673D01*
X106649673Y-68220301D01*
X106628519Y-68271372D01*
X106328155Y-68070675D01*
X105696345Y-67945000D01*
X105631655Y-67945000D01*
X104999845Y-68070675D01*
X104464222Y-68428567D01*
X104106330Y-68964190D01*
X103980655Y-69596000D01*
X104081619Y-70103579D01*
X91537599Y-82647599D01*
X91372852Y-82894161D01*
X91315000Y-83185000D01*
X91315000Y-91696000D01*
X90361283Y-91696000D01*
X90224628Y-91491481D01*
X90275699Y-91470327D01*
X90454327Y-91291698D01*
X90551000Y-91058309D01*
X90551000Y-90201750D01*
X90392250Y-90043000D01*
X89027000Y-90043000D01*
X89027000Y-90063000D01*
X88773000Y-90063000D01*
X88773000Y-90043000D01*
X87407750Y-90043000D01*
X87249000Y-90201750D01*
X87249000Y-91058309D01*
X87345673Y-91291698D01*
X87524301Y-91470327D01*
X87575372Y-91491481D01*
X87374675Y-91791845D01*
X87249000Y-92423655D01*
X87249000Y-92488345D01*
X87374675Y-93120155D01*
X87732567Y-93655778D01*
X88140000Y-93928016D01*
X88140000Y-100203000D01*
X88197852Y-100493839D01*
X88362599Y-100740401D01*
X101912198Y-114290000D01*
X85710000Y-114290000D01*
X85710000Y-88773691D01*
X87249000Y-88773691D01*
X87249000Y-89630250D01*
X87407750Y-89789000D01*
X88773000Y-89789000D01*
X88773000Y-88423750D01*
X89027000Y-88423750D01*
X89027000Y-89789000D01*
X90392250Y-89789000D01*
X90551000Y-89630250D01*
X90551000Y-88773691D01*
X90454327Y-88540302D01*
X90275699Y-88361673D01*
X90042310Y-88265000D01*
X89185750Y-88265000D01*
X89027000Y-88423750D01*
X88773000Y-88423750D01*
X88614250Y-88265000D01*
X87757690Y-88265000D01*
X87524301Y-88361673D01*
X87345673Y-88540302D01*
X87249000Y-88773691D01*
X85710000Y-88773691D01*
X85710000Y-65710000D01*
X129290000Y-65710000D01*
X129290000Y-114290000D01*
G36*
X104904000Y-74041000D02*
X104961852Y-74331839D01*
X105126599Y-74578401D01*
X120718198Y-90170000D01*
X116810599Y-94077599D01*
X116645852Y-94324161D01*
X116588000Y-94615000D01*
X116588000Y-109921198D01*
X116525198Y-109984000D01*
X110800802Y-109984000D01*
X114456401Y-106328401D01*
X114621148Y-106081839D01*
X114679000Y-105791000D01*
X114679000Y-84709000D01*
X114621148Y-84418161D01*
X114621148Y-84418160D01*
X114456401Y-84171599D01*
X114426401Y-84141599D01*
X114179839Y-83976852D01*
X113889000Y-83919000D01*
X111854982Y-83919000D01*
X111722809Y-83721191D01*
X111512765Y-83580843D01*
X111265000Y-83531560D01*
X110265000Y-83531560D01*
X110017235Y-83580843D01*
X109807191Y-83721191D01*
X109666843Y-83931235D01*
X109617560Y-84179000D01*
X109617560Y-85179000D01*
X109666843Y-85426765D01*
X109807191Y-85636809D01*
X110017235Y-85777157D01*
X110265000Y-85826440D01*
X111265000Y-85826440D01*
X111512765Y-85777157D01*
X111722809Y-85636809D01*
X111854982Y-85439000D01*
X113159000Y-85439000D01*
X113159000Y-105476198D01*
X109400354Y-109234844D01*
X109376155Y-109218675D01*
X108744345Y-109093000D01*
X108679655Y-109093000D01*
X108047845Y-109218675D01*
X107747481Y-109419372D01*
X107726327Y-109368301D01*
X107547698Y-109189673D01*
X107314309Y-109093000D01*
X106457750Y-109093000D01*
X106299000Y-109251750D01*
X106299000Y-110617000D01*
X106319000Y-110617000D01*
X106319000Y-110871000D01*
X106299000Y-110871000D01*
X106299000Y-112236250D01*
X106457750Y-112395000D01*
X107314309Y-112395000D01*
X107547698Y-112298327D01*
X107726327Y-112119699D01*
X107747481Y-112068628D01*
X107952000Y-112205283D01*
X107952000Y-113032000D01*
X102803802Y-113032000D01*
X100801552Y-111029750D01*
X104521000Y-111029750D01*
X104521000Y-111886310D01*
X104617673Y-112119699D01*
X104796302Y-112298327D01*
X105029691Y-112395000D01*
X105886250Y-112395000D01*
X106045000Y-112236250D01*
X106045000Y-110871000D01*
X104679750Y-110871000D01*
X104521000Y-111029750D01*
X100801552Y-111029750D01*
X99373492Y-109601690D01*
X104521000Y-109601690D01*
X104521000Y-110458250D01*
X104679750Y-110617000D01*
X106045000Y-110617000D01*
X106045000Y-109251750D01*
X105886250Y-109093000D01*
X105029691Y-109093000D01*
X104796302Y-109189673D01*
X104617673Y-109368301D01*
X104521000Y-109601690D01*
X99373492Y-109601690D01*
X89660000Y-99888198D01*
X89660000Y-95065694D01*
X98441226Y-95065694D01*
X98689538Y-95666655D01*
X99148927Y-96126846D01*
X99316000Y-96196221D01*
X99316000Y-97028000D01*
X99373852Y-97318839D01*
X99538599Y-97565401D01*
X99785161Y-97730148D01*
X100076000Y-97788000D01*
X108077000Y-97788000D01*
X108367839Y-97730148D01*
X108614401Y-97565401D01*
X108779148Y-97318839D01*
X108837000Y-97028000D01*
X108837000Y-93657047D01*
X109001943Y-93588894D01*
X109462278Y-93129363D01*
X109711716Y-92528648D01*
X109712284Y-91878205D01*
X109463894Y-91277057D01*
X109004363Y-90816722D01*
X108403648Y-90567284D01*
X107753205Y-90566716D01*
X107152057Y-90815106D01*
X107086153Y-90880895D01*
X106994809Y-90744191D01*
X106784765Y-90603843D01*
X106537000Y-90554560D01*
X104964362Y-90554560D01*
X104625000Y-90215198D01*
X104625000Y-88368982D01*
X104822809Y-88236809D01*
X104963157Y-88026765D01*
X105012440Y-87779000D01*
X105012440Y-87564750D01*
X109630000Y-87564750D01*
X109630000Y-87905309D01*
X109726673Y-88138698D01*
X109905301Y-88317327D01*
X110138690Y-88414000D01*
X110479250Y-88414000D01*
X110638000Y-88255250D01*
X110638000Y-87406000D01*
X110892000Y-87406000D01*
X110892000Y-88255250D01*
X111050750Y-88414000D01*
X111391310Y-88414000D01*
X111624699Y-88317327D01*
X111803327Y-88138698D01*
X111900000Y-87905309D01*
X111900000Y-87564750D01*
X111741250Y-87406000D01*
X110892000Y-87406000D01*
X110638000Y-87406000D01*
X109788750Y-87406000D01*
X109630000Y-87564750D01*
X105012440Y-87564750D01*
X105012440Y-86779000D01*
X104987316Y-86652691D01*
X109630000Y-86652691D01*
X109630000Y-86993250D01*
X109788750Y-87152000D01*
X110638000Y-87152000D01*
X110638000Y-86302750D01*
X110892000Y-86302750D01*
X110892000Y-87152000D01*
X111741250Y-87152000D01*
X111900000Y-86993250D01*
X111900000Y-86652691D01*
X111803327Y-86419302D01*
X111624699Y-86240673D01*
X111391310Y-86144000D01*
X111050750Y-86144000D01*
X110892000Y-86302750D01*
X110638000Y-86302750D01*
X110479250Y-86144000D01*
X110138690Y-86144000D01*
X109905301Y-86240673D01*
X109726673Y-86419302D01*
X109630000Y-86652691D01*
X104987316Y-86652691D01*
X104963157Y-86531235D01*
X104822809Y-86321191D01*
X104612765Y-86180843D01*
X104365000Y-86131560D01*
X103365000Y-86131560D01*
X103117235Y-86180843D01*
X102907191Y-86321191D01*
X102766843Y-86531235D01*
X102717560Y-86779000D01*
X102717560Y-87779000D01*
X102766843Y-88026765D01*
X102907191Y-88236809D01*
X103105000Y-88368982D01*
X103105000Y-90530000D01*
X103162852Y-90820839D01*
X103327599Y-91067401D01*
X103889560Y-91629362D01*
X103889560Y-93202000D01*
X103938843Y-93449765D01*
X104079191Y-93659809D01*
X104289235Y-93800157D01*
X104537000Y-93849440D01*
X106537000Y-93849440D01*
X106784765Y-93800157D01*
X106994809Y-93659809D01*
X107085921Y-93523451D01*
X107149637Y-93587278D01*
X107317000Y-93656773D01*
X107317000Y-96268000D01*
X100836000Y-96268000D01*
X100836000Y-96196496D01*
X101000655Y-96128462D01*
X101460846Y-95669073D01*
X101710206Y-95068547D01*
X101710774Y-94418306D01*
X101462462Y-93817345D01*
X101003073Y-93357154D01*
X100402547Y-93107794D01*
X99752306Y-93107226D01*
X99151345Y-93355538D01*
X98691154Y-93814927D01*
X98441794Y-94415453D01*
X98441226Y-95065694D01*
X89660000Y-95065694D01*
X89660000Y-93928016D01*
X90067433Y-93655778D01*
X90361283Y-93216000D01*
X91948000Y-93216000D01*
X92238839Y-93158148D01*
X92485401Y-92993401D01*
X92612401Y-92866401D01*
X92777148Y-92619839D01*
X92835000Y-92329000D01*
X92835000Y-87445694D01*
X98441226Y-87445694D01*
X98689538Y-88046655D01*
X99148927Y-88506846D01*
X99749453Y-88756206D01*
X100399694Y-88756774D01*
X101000655Y-88508462D01*
X101460846Y-88049073D01*
X101710206Y-87448547D01*
X101710774Y-86798306D01*
X101641691Y-86631111D01*
X102810580Y-85462222D01*
X102907191Y-85606809D01*
X103117235Y-85747157D01*
X103365000Y-85796440D01*
X104365000Y-85796440D01*
X104612765Y-85747157D01*
X104822809Y-85606809D01*
X104963157Y-85396765D01*
X105012440Y-85149000D01*
X105012440Y-84149000D01*
X104963157Y-83901235D01*
X104822809Y-83691191D01*
X104612765Y-83550843D01*
X104365000Y-83501560D01*
X103365000Y-83501560D01*
X103117235Y-83550843D01*
X102907191Y-83691191D01*
X102775018Y-83889000D01*
X102549000Y-83889000D01*
X102258161Y-83946852D01*
X102011599Y-84111599D01*
X100567083Y-85556115D01*
X100402547Y-85487794D01*
X99752306Y-85487226D01*
X99151345Y-85735538D01*
X98691154Y-86194927D01*
X98441794Y-86795453D01*
X98441226Y-87445694D01*
X92835000Y-87445694D01*
X92835000Y-83499802D01*
X104904000Y-71430802D01*
X104904000Y-74041000D01*
X104904000Y-74041000D01*
G37*
X104904000Y-74041000D02*
X104961852Y-74331839D01*
X105126599Y-74578401D01*
X120718198Y-90170000D01*
X116810599Y-94077599D01*
X116645852Y-94324161D01*
X116588000Y-94615000D01*
X116588000Y-109921198D01*
X116525198Y-109984000D01*
X110800802Y-109984000D01*
X114456401Y-106328401D01*
X114621148Y-106081839D01*
X114679000Y-105791000D01*
X114679000Y-84709000D01*
X114621148Y-84418161D01*
X114621148Y-84418160D01*
X114456401Y-84171599D01*
X114426401Y-84141599D01*
X114179839Y-83976852D01*
X113889000Y-83919000D01*
X111854982Y-83919000D01*
X111722809Y-83721191D01*
X111512765Y-83580843D01*
X111265000Y-83531560D01*
X110265000Y-83531560D01*
X110017235Y-83580843D01*
X109807191Y-83721191D01*
X109666843Y-83931235D01*
X109617560Y-84179000D01*
X109617560Y-85179000D01*
X109666843Y-85426765D01*
X109807191Y-85636809D01*
X110017235Y-85777157D01*
X110265000Y-85826440D01*
X111265000Y-85826440D01*
X111512765Y-85777157D01*
X111722809Y-85636809D01*
X111854982Y-85439000D01*
X113159000Y-85439000D01*
X113159000Y-105476198D01*
X109400354Y-109234844D01*
X109376155Y-109218675D01*
X108744345Y-109093000D01*
X108679655Y-109093000D01*
X108047845Y-109218675D01*
X107747481Y-109419372D01*
X107726327Y-109368301D01*
X107547698Y-109189673D01*
X107314309Y-109093000D01*
X106457750Y-109093000D01*
X106299000Y-109251750D01*
X106299000Y-110617000D01*
X106319000Y-110617000D01*
X106319000Y-110871000D01*
X106299000Y-110871000D01*
X106299000Y-112236250D01*
X106457750Y-112395000D01*
X107314309Y-112395000D01*
X107547698Y-112298327D01*
X107726327Y-112119699D01*
X107747481Y-112068628D01*
X107952000Y-112205283D01*
X107952000Y-113032000D01*
X102803802Y-113032000D01*
X100801552Y-111029750D01*
X104521000Y-111029750D01*
X104521000Y-111886310D01*
X104617673Y-112119699D01*
X104796302Y-112298327D01*
X105029691Y-112395000D01*
X105886250Y-112395000D01*
X106045000Y-112236250D01*
X106045000Y-110871000D01*
X104679750Y-110871000D01*
X104521000Y-111029750D01*
X100801552Y-111029750D01*
X99373492Y-109601690D01*
X104521000Y-109601690D01*
X104521000Y-110458250D01*
X104679750Y-110617000D01*
X106045000Y-110617000D01*
X106045000Y-109251750D01*
X105886250Y-109093000D01*
X105029691Y-109093000D01*
X104796302Y-109189673D01*
X104617673Y-109368301D01*
X104521000Y-109601690D01*
X99373492Y-109601690D01*
X89660000Y-99888198D01*
X89660000Y-95065694D01*
X98441226Y-95065694D01*
X98689538Y-95666655D01*
X99148927Y-96126846D01*
X99316000Y-96196221D01*
X99316000Y-97028000D01*
X99373852Y-97318839D01*
X99538599Y-97565401D01*
X99785161Y-97730148D01*
X100076000Y-97788000D01*
X108077000Y-97788000D01*
X108367839Y-97730148D01*
X108614401Y-97565401D01*
X108779148Y-97318839D01*
X108837000Y-97028000D01*
X108837000Y-93657047D01*
X109001943Y-93588894D01*
X109462278Y-93129363D01*
X109711716Y-92528648D01*
X109712284Y-91878205D01*
X109463894Y-91277057D01*
X109004363Y-90816722D01*
X108403648Y-90567284D01*
X107753205Y-90566716D01*
X107152057Y-90815106D01*
X107086153Y-90880895D01*
X106994809Y-90744191D01*
X106784765Y-90603843D01*
X106537000Y-90554560D01*
X104964362Y-90554560D01*
X104625000Y-90215198D01*
X104625000Y-88368982D01*
X104822809Y-88236809D01*
X104963157Y-88026765D01*
X105012440Y-87779000D01*
X105012440Y-87564750D01*
X109630000Y-87564750D01*
X109630000Y-87905309D01*
X109726673Y-88138698D01*
X109905301Y-88317327D01*
X110138690Y-88414000D01*
X110479250Y-88414000D01*
X110638000Y-88255250D01*
X110638000Y-87406000D01*
X110892000Y-87406000D01*
X110892000Y-88255250D01*
X111050750Y-88414000D01*
X111391310Y-88414000D01*
X111624699Y-88317327D01*
X111803327Y-88138698D01*
X111900000Y-87905309D01*
X111900000Y-87564750D01*
X111741250Y-87406000D01*
X110892000Y-87406000D01*
X110638000Y-87406000D01*
X109788750Y-87406000D01*
X109630000Y-87564750D01*
X105012440Y-87564750D01*
X105012440Y-86779000D01*
X104987316Y-86652691D01*
X109630000Y-86652691D01*
X109630000Y-86993250D01*
X109788750Y-87152000D01*
X110638000Y-87152000D01*
X110638000Y-86302750D01*
X110892000Y-86302750D01*
X110892000Y-87152000D01*
X111741250Y-87152000D01*
X111900000Y-86993250D01*
X111900000Y-86652691D01*
X111803327Y-86419302D01*
X111624699Y-86240673D01*
X111391310Y-86144000D01*
X111050750Y-86144000D01*
X110892000Y-86302750D01*
X110638000Y-86302750D01*
X110479250Y-86144000D01*
X110138690Y-86144000D01*
X109905301Y-86240673D01*
X109726673Y-86419302D01*
X109630000Y-86652691D01*
X104987316Y-86652691D01*
X104963157Y-86531235D01*
X104822809Y-86321191D01*
X104612765Y-86180843D01*
X104365000Y-86131560D01*
X103365000Y-86131560D01*
X103117235Y-86180843D01*
X102907191Y-86321191D01*
X102766843Y-86531235D01*
X102717560Y-86779000D01*
X102717560Y-87779000D01*
X102766843Y-88026765D01*
X102907191Y-88236809D01*
X103105000Y-88368982D01*
X103105000Y-90530000D01*
X103162852Y-90820839D01*
X103327599Y-91067401D01*
X103889560Y-91629362D01*
X103889560Y-93202000D01*
X103938843Y-93449765D01*
X104079191Y-93659809D01*
X104289235Y-93800157D01*
X104537000Y-93849440D01*
X106537000Y-93849440D01*
X106784765Y-93800157D01*
X106994809Y-93659809D01*
X107085921Y-93523451D01*
X107149637Y-93587278D01*
X107317000Y-93656773D01*
X107317000Y-96268000D01*
X100836000Y-96268000D01*
X100836000Y-96196496D01*
X101000655Y-96128462D01*
X101460846Y-95669073D01*
X101710206Y-95068547D01*
X101710774Y-94418306D01*
X101462462Y-93817345D01*
X101003073Y-93357154D01*
X100402547Y-93107794D01*
X99752306Y-93107226D01*
X99151345Y-93355538D01*
X98691154Y-93814927D01*
X98441794Y-94415453D01*
X98441226Y-95065694D01*
X89660000Y-95065694D01*
X89660000Y-93928016D01*
X90067433Y-93655778D01*
X90361283Y-93216000D01*
X91948000Y-93216000D01*
X92238839Y-93158148D01*
X92485401Y-92993401D01*
X92612401Y-92866401D01*
X92777148Y-92619839D01*
X92835000Y-92329000D01*
X92835000Y-87445694D01*
X98441226Y-87445694D01*
X98689538Y-88046655D01*
X99148927Y-88506846D01*
X99749453Y-88756206D01*
X100399694Y-88756774D01*
X101000655Y-88508462D01*
X101460846Y-88049073D01*
X101710206Y-87448547D01*
X101710774Y-86798306D01*
X101641691Y-86631111D01*
X102810580Y-85462222D01*
X102907191Y-85606809D01*
X103117235Y-85747157D01*
X103365000Y-85796440D01*
X104365000Y-85796440D01*
X104612765Y-85747157D01*
X104822809Y-85606809D01*
X104963157Y-85396765D01*
X105012440Y-85149000D01*
X105012440Y-84149000D01*
X104963157Y-83901235D01*
X104822809Y-83691191D01*
X104612765Y-83550843D01*
X104365000Y-83501560D01*
X103365000Y-83501560D01*
X103117235Y-83550843D01*
X102907191Y-83691191D01*
X102775018Y-83889000D01*
X102549000Y-83889000D01*
X102258161Y-83946852D01*
X102011599Y-84111599D01*
X100567083Y-85556115D01*
X100402547Y-85487794D01*
X99752306Y-85487226D01*
X99151345Y-85735538D01*
X98691154Y-86194927D01*
X98441794Y-86795453D01*
X98441226Y-87445694D01*
X92835000Y-87445694D01*
X92835000Y-83499802D01*
X104904000Y-71430802D01*
X104904000Y-74041000D01*
M02*
